<svg width="398" height="174" viewBox="0 0 398 174" fill="none" xmlns="http://www.w3.org/2000/svg">
<path d="M66.9146 62.3993C70.1927 60.3459 79.5212 59.1535 84.1938 58.0559C88.8664 56.9584 78.5648 72.842 72.9514 73.971C69.2091 74.7237 65.7564 74.3283 63.6866 71.0239C61.6168 67.7196 63.6365 64.4526 66.9146 62.3993Z" fill="#88B69C"/>
<path d="M55.1868 66.0478C53.117 69.3519 49.6646 69.7473 45.9224 68.9947C40.3091 67.8654 30.0079 51.9832 34.6797 53.08C39.3523 54.1776 48.6816 55.3694 51.9597 57.4228C55.2377 59.4761 57.2566 62.7435 55.1868 66.0478Z" fill="#88B69C"/>
<path d="M61.0001 87.9051C60.5162 85.1622 60.1127 82.673 59.7979 80.3495C58.4993 70.7662 58.7087 64.004 61.0001 53.9051" stroke="#A18775" stroke-width="5" stroke-linecap="round"/>
<path d="M61.1295 84.9051C60.2134 73.8674 64.3358 72.1692 68.0001 69.9051" stroke="#A18775" stroke-width="3.5" stroke-linecap="round"/>
<path d="M59 77C56.5 64 49.916 63.0059 47 62" stroke="#A18775" stroke-width="3.5" stroke-linecap="round"/>
<path d="M107.32 99.9992V99.1992C108.173 99.1459 108.813 99.0392 109.24 98.8792C109.666 98.7192 109.946 98.3992 110.08 97.9192C110.24 97.4392 110.32 96.7192 110.32 95.7592V75.9192C110.32 74.9325 110.24 74.2125 110.08 73.7592C109.946 73.2792 109.653 72.9592 109.2 72.7992C108.773 72.6125 108.146 72.5059 107.32 72.4792V71.6792C108.04 71.7059 108.973 71.7325 110.12 71.7592C111.293 71.7859 112.453 71.7992 113.6 71.7992C114.826 71.7992 115.973 71.7859 117.04 71.7592C118.133 71.7325 119.013 71.7059 119.68 71.6792V72.4792C118.826 72.5059 118.173 72.6125 117.72 72.7992C117.293 72.9592 117.013 73.2792 116.88 73.7592C116.746 74.2125 116.68 74.9325 116.68 75.9192V95.7592C116.68 96.7192 116.746 97.4392 116.88 97.9192C117.04 98.3992 117.333 98.7192 117.76 98.8792C118.186 99.0392 118.826 99.1459 119.68 99.1992V99.9992C119.013 99.9459 118.133 99.9192 117.04 99.9192C115.973 99.8925 114.826 99.8792 113.6 99.8792C112.453 99.8792 111.293 99.8925 110.12 99.9192C108.973 99.9192 108.04 99.9459 107.32 99.9992ZM90.3596 99.9992V99.1992C91.213 99.1459 91.853 99.0392 92.2796 98.8792C92.7063 98.7192 92.9863 98.3992 93.1196 97.9192C93.2796 97.4392 93.3596 96.7192 93.3596 95.7592V75.9192C93.3596 74.9325 93.2796 74.2125 93.1196 73.7592C92.9863 73.2792 92.693 72.9592 92.2396 72.7992C91.813 72.6125 91.1863 72.5059 90.3596 72.4792V71.6792C91.053 71.7059 91.9463 71.7325 93.0396 71.7592C94.1596 71.7859 95.373 71.7992 96.6796 71.7992C97.7996 71.7992 98.9063 71.7859 99.9996 71.7592C101.093 71.7325 102 71.7059 102.72 71.6792V72.4792C101.866 72.5059 101.213 72.6125 100.76 72.7992C100.333 72.9592 100.053 73.2792 99.9196 73.7592C99.7863 74.2125 99.7196 74.9325 99.7196 75.9192V95.7592C99.7196 96.7192 99.7863 97.4392 99.9196 97.9192C100.08 98.3992 100.373 98.7192 100.8 98.8792C101.226 99.0392 101.866 99.1459 102.72 99.1992V99.9992C102 99.9459 101.093 99.9192 99.9996 99.9192C98.9063 99.8925 97.7996 99.8792 96.6796 99.8792C95.373 99.8792 94.1596 99.8925 93.0396 99.9192C91.9463 99.9192 91.053 99.9459 90.3596 99.9992ZM97.1196 86.1592V85.3592H112.92V86.1592H97.1196ZM143.712 71.5992L153.432 96.6392C153.805 97.5992 154.218 98.2659 154.672 98.6392C155.152 98.9859 155.578 99.1725 155.952 99.1992V99.9992C155.152 99.9459 154.205 99.9192 153.112 99.9192C152.045 99.8925 150.965 99.8792 149.872 99.8792C148.645 99.8792 147.485 99.8925 146.392 99.9192C145.298 99.9192 144.432 99.9459 143.792 99.9992V99.1992C145.152 99.1459 146.005 98.9192 146.352 98.5192C146.725 98.0925 146.645 97.1992 146.112 95.8392L139.312 77.2392L140.032 76.1992L133.952 92.0392C133.365 93.5059 133.005 94.7059 132.872 95.6392C132.765 96.5725 132.832 97.2925 133.072 97.7992C133.338 98.3059 133.752 98.6659 134.312 98.8792C134.898 99.0659 135.592 99.1725 136.392 99.1992V99.9992C135.512 99.9459 134.672 99.9192 133.872 99.9192C133.072 99.8925 132.258 99.8792 131.432 99.8792C130.845 99.8792 130.285 99.8925 129.752 99.9192C129.245 99.9192 128.792 99.9459 128.392 99.9992V99.1992C128.952 99.0925 129.525 98.7325 130.112 98.1192C130.698 97.5059 131.272 96.4659 131.832 94.9992L140.952 71.5992C141.378 71.6259 141.832 71.6392 142.312 71.6392C142.818 71.6392 143.285 71.6259 143.712 71.5992ZM146.512 88.4792V89.2792H134.592L134.992 88.4792H146.512ZM164.25 71.6792C164.917 71.7059 165.81 71.7325 166.93 71.7592C168.077 71.7859 169.21 71.7992 170.33 71.7992C171.61 71.7992 172.85 71.7859 174.05 71.7592C175.25 71.7325 176.104 71.7192 176.61 71.7192C180.317 71.7192 183.09 72.4525 184.93 73.9192C186.77 75.3859 187.69 77.2792 187.69 79.5992C187.69 80.5592 187.504 81.5725 187.13 82.6392C186.757 83.6792 186.117 84.6525 185.21 85.5592C184.33 86.4392 183.117 87.1592 181.57 87.7192C180.024 88.2792 178.077 88.5592 175.73 88.5592H171.65V87.7592H175.33C176.904 87.7592 178.09 87.3992 178.89 86.6792C179.717 85.9592 180.277 85.0125 180.57 83.8392C180.89 82.6659 181.05 81.3992 181.05 80.0392C181.05 77.5059 180.677 75.6125 179.93 74.3592C179.184 73.1059 177.904 72.4792 176.09 72.4792C175.05 72.4792 174.37 72.7059 174.05 73.1592C173.757 73.6125 173.61 74.5325 173.61 75.9192V95.5192C173.61 96.5592 173.717 97.3325 173.93 97.8392C174.144 98.3459 174.557 98.6792 175.17 98.8392C175.784 98.9992 176.69 99.0925 177.89 99.1192V99.9992C177.064 99.9725 175.997 99.9459 174.69 99.9192C173.384 99.8925 172.01 99.8792 170.57 99.8792C169.424 99.8792 168.304 99.8925 167.21 99.9192C166.117 99.9459 165.13 99.9725 164.25 99.9992V99.1992C165.104 99.1459 165.744 99.0392 166.17 98.8792C166.597 98.7192 166.877 98.3992 167.01 97.9192C167.17 97.4392 167.25 96.7192 167.25 95.7592V75.9192C167.25 74.9325 167.17 74.2125 167.01 73.7592C166.877 73.2792 166.584 72.9592 166.13 72.7992C165.704 72.6125 165.077 72.5059 164.25 72.4792V71.6792ZM197.68 71.6792C198.347 71.7059 199.24 71.7325 200.36 71.7592C201.507 71.7859 202.64 71.7992 203.76 71.7992C205.04 71.7992 206.28 71.7859 207.48 71.7592C208.68 71.7325 209.533 71.7192 210.04 71.7192C213.747 71.7192 216.52 72.4525 218.36 73.9192C220.2 75.3859 221.12 77.2792 221.12 79.5992C221.12 80.5592 220.933 81.5725 220.56 82.6392C220.187 83.6792 219.547 84.6525 218.64 85.5592C217.76 86.4392 216.547 87.1592 215 87.7192C213.453 88.2792 211.507 88.5592 209.16 88.5592H205.08V87.7592H208.76C210.333 87.7592 211.52 87.3992 212.32 86.6792C213.147 85.9592 213.707 85.0125 214 83.8392C214.32 82.6659 214.48 81.3992 214.48 80.0392C214.48 77.5059 214.107 75.6125 213.36 74.3592C212.613 73.1059 211.333 72.4792 209.52 72.4792C208.48 72.4792 207.8 72.7059 207.48 73.1592C207.187 73.6125 207.04 74.5325 207.04 75.9192V95.5192C207.04 96.5592 207.147 97.3325 207.36 97.8392C207.573 98.3459 207.987 98.6792 208.6 98.8392C209.213 98.9992 210.12 99.0925 211.32 99.1192V99.9992C210.493 99.9725 209.427 99.9459 208.12 99.9192C206.813 99.8925 205.44 99.8792 204 99.8792C202.853 99.8792 201.733 99.8925 200.64 99.9192C199.547 99.9459 198.56 99.9725 197.68 99.9992V99.1992C198.533 99.1459 199.173 99.0392 199.6 98.8792C200.027 98.7192 200.307 98.3992 200.44 97.9192C200.6 97.4392 200.68 96.7192 200.68 95.7592V75.9192C200.68 74.9325 200.6 74.2125 200.44 73.7592C200.307 73.2792 200.013 72.9592 199.56 72.7992C199.133 72.6125 198.507 72.5059 197.68 72.4792V71.6792ZM243.47 71.6792V72.4792C242.616 72.5059 241.963 72.6125 241.51 72.7992C241.083 72.9592 240.803 73.2792 240.67 73.7592C240.536 74.2125 240.47 74.9325 240.47 75.9192V95.7592C240.47 96.7192 240.536 97.4392 240.67 97.9192C240.83 98.3992 241.123 98.7192 241.55 98.8792C241.976 99.0392 242.616 99.1459 243.47 99.1992V99.9992C242.75 99.9459 241.843 99.9192 240.75 99.9192C239.656 99.8925 238.55 99.8792 237.43 99.8792C236.123 99.8792 234.91 99.8925 233.79 99.9192C232.696 99.9192 231.803 99.9459 231.11 99.9992V99.1992C231.963 99.1459 232.603 99.0392 233.03 98.8792C233.456 98.7192 233.736 98.3992 233.87 97.9192C234.03 97.4392 234.11 96.7192 234.11 95.7592V75.9192C234.11 74.9325 234.03 74.2125 233.87 73.7592C233.736 73.2792 233.443 72.9592 232.99 72.7992C232.563 72.6125 231.936 72.5059 231.11 72.4792V71.6792C231.803 71.7059 232.696 71.7325 233.79 71.7592C234.91 71.7859 236.123 71.7992 237.43 71.7992C238.55 71.7992 239.656 71.7859 240.75 71.7592C241.843 71.7325 242.75 71.7059 243.47 71.6792ZM280.509 71.6792V72.4792C279.655 72.5859 279.015 72.8125 278.589 73.1592C278.162 73.4792 277.869 73.9992 277.709 74.7192C277.575 75.4392 277.509 76.4525 277.509 77.7592V100.079C277.189 100.053 276.855 100.039 276.509 100.039C276.189 100.039 275.842 100.053 275.469 100.079L258.109 78.0792V93.4392C258.109 94.9059 258.189 96.0392 258.349 96.8392C258.509 97.6125 258.855 98.1725 259.389 98.5192C259.949 98.8392 260.815 99.0659 261.989 99.1992V99.9992C261.482 99.9459 260.815 99.9192 259.989 99.9192C259.162 99.8925 258.389 99.8792 257.669 99.8792C257.055 99.8792 256.429 99.8925 255.789 99.9192C255.149 99.9192 254.615 99.9459 254.189 99.9992V99.1992C255.042 99.0659 255.682 98.8392 256.109 98.5192C256.535 98.1992 256.815 97.6792 256.949 96.9592C257.109 96.2125 257.189 95.1992 257.189 93.9192V75.9192C257.189 74.9325 257.109 74.2125 256.949 73.7592C256.815 73.2792 256.522 72.9592 256.069 72.7992C255.642 72.6125 255.015 72.5059 254.189 72.4792V71.6792C254.615 71.7059 255.149 71.7325 255.789 71.7592C256.429 71.7859 257.055 71.7992 257.669 71.7992C258.309 71.7992 258.922 71.7859 259.509 71.7592C260.095 71.7325 260.629 71.7059 261.109 71.6792L276.589 90.7592V78.2392C276.589 76.7725 276.509 75.6525 276.349 74.8792C276.189 74.0792 275.829 73.5059 275.269 73.1592C274.735 72.8125 273.882 72.5859 272.709 72.4792V71.6792C273.215 71.7059 273.882 71.7325 274.709 71.7592C275.535 71.7859 276.309 71.7992 277.029 71.7992C277.669 71.7992 278.295 71.7859 278.909 71.7592C279.549 71.7325 280.082 71.7059 280.509 71.6792ZM316.496 71.6792V72.4792C315.643 72.5859 314.989 72.8125 314.536 73.1592C314.109 73.4792 313.829 73.9992 313.696 74.7192C313.563 75.4392 313.496 76.4525 313.496 77.7592V88.3592C313.496 90.0925 313.376 91.6792 313.136 93.1192C312.896 94.5592 312.469 95.7992 311.856 96.8392C311.163 97.9859 310.149 98.8925 308.816 99.5592C307.483 100.226 305.789 100.559 303.736 100.559C302.509 100.559 301.256 100.413 299.976 100.119C298.696 99.8525 297.549 99.3325 296.536 98.5592C295.683 97.8392 295.029 97.0259 294.576 96.1192C294.123 95.2125 293.816 94.1459 293.656 92.9192C293.496 91.6659 293.416 90.1859 293.416 88.4792V75.9192C293.416 74.9325 293.336 74.2125 293.176 73.7592C293.043 73.2792 292.763 72.9592 292.336 72.7992C291.909 72.6125 291.269 72.5059 290.416 72.4792V71.6792C291.083 71.7059 291.976 71.7325 293.096 71.7592C294.243 71.7859 295.429 71.7992 296.656 71.7992C297.883 71.7992 299.056 71.7859 300.176 71.7592C301.323 71.7325 302.269 71.7059 303.016 71.6792V72.4792C302.109 72.5059 301.416 72.6125 300.936 72.7992C300.483 72.9592 300.176 73.2792 300.016 73.7592C299.856 74.2125 299.776 74.9325 299.776 75.9192V90.9992C299.776 92.3325 299.856 93.5192 300.016 94.5592C300.203 95.5725 300.496 96.4259 300.896 97.1192C301.323 97.7859 301.896 98.2925 302.616 98.6392C303.336 98.9859 304.229 99.1592 305.296 99.1592C307.163 99.1592 308.616 98.7192 309.656 97.8392C310.723 96.9592 311.469 95.7459 311.896 94.1992C312.349 92.6259 312.576 90.8259 312.576 88.7992V78.2392C312.576 76.7725 312.483 75.6525 312.296 74.8792C312.109 74.0792 311.736 73.5059 311.176 73.1592C310.643 72.8125 309.816 72.5859 308.696 72.4792V71.6792C309.203 71.7059 309.869 71.7325 310.696 71.7592C311.523 71.7859 312.296 71.7992 313.016 71.7992C313.656 71.7992 314.283 71.7859 314.896 71.7592C315.536 71.7325 316.069 71.7059 316.496 71.6792ZM336.594 71.1592C338.167 71.1592 339.381 71.3325 340.234 71.6792C341.087 71.9992 341.821 72.3459 342.434 72.7192C342.754 72.9059 343.007 73.0525 343.194 73.1592C343.407 73.2392 343.607 73.2792 343.794 73.2792C344.061 73.2792 344.247 73.1325 344.354 72.8392C344.487 72.5459 344.594 72.1059 344.674 71.5192H345.594C345.567 72.0259 345.527 72.6392 345.474 73.3592C345.447 74.0525 345.421 74.9725 345.394 76.1192C345.394 77.2659 345.394 78.7725 345.394 80.6392H344.474C344.367 79.2525 344.047 77.9059 343.514 76.5992C342.981 75.2925 342.221 74.2259 341.234 73.3992C340.274 72.5459 339.087 72.1192 337.674 72.1192C336.394 72.1192 335.341 72.4792 334.514 73.1992C333.687 73.9192 333.274 74.9192 333.274 76.1992C333.274 77.2659 333.541 78.1859 334.074 78.9592C334.607 79.7059 335.381 80.4392 336.394 81.1592C337.434 81.8792 338.687 82.7459 340.154 83.7592C341.434 84.5859 342.581 85.4125 343.594 86.2392C344.607 87.0659 345.421 87.9992 346.034 89.0392C346.647 90.0792 346.954 91.3192 346.954 92.7592C346.954 94.5192 346.487 95.9725 345.554 97.1192C344.647 98.2659 343.447 99.1325 341.954 99.7192C340.461 100.279 338.821 100.559 337.034 100.559C335.381 100.559 334.061 100.399 333.074 100.079C332.087 99.7592 331.261 99.4259 330.594 99.0792C330.007 98.7059 329.554 98.5192 329.234 98.5192C328.967 98.5192 328.767 98.6659 328.634 98.9592C328.527 99.2525 328.434 99.6925 328.354 100.279H327.434C327.487 99.6392 327.514 98.8925 327.514 98.0392C327.541 97.1859 327.554 96.0792 327.554 94.7192C327.581 93.3325 327.594 91.5859 327.594 89.4792H328.514C328.621 91.2392 328.914 92.8925 329.394 94.4392C329.901 95.9592 330.661 97.1859 331.674 98.1192C332.714 99.0525 334.087 99.5192 335.794 99.5192C336.727 99.5192 337.554 99.3592 338.274 99.0392C339.021 98.6925 339.621 98.1859 340.074 97.5192C340.527 96.8525 340.754 96.0259 340.754 95.0392C340.754 93.9192 340.487 92.9459 339.954 92.1192C339.447 91.2925 338.741 90.5192 337.834 89.7992C336.954 89.0792 335.927 88.3459 334.754 87.5992C333.501 86.7725 332.327 85.9459 331.234 85.1192C330.141 84.2925 329.261 83.3459 328.594 82.2792C327.954 81.2125 327.634 79.9459 327.634 78.4792C327.634 76.7992 328.047 75.4259 328.874 74.3592C329.727 73.2659 330.834 72.4659 332.194 71.9592C333.581 71.4259 335.047 71.1592 336.594 71.1592Z" fill="#7C4A2D"/>
<path d="M91.73 111.44C91.4967 111.767 91.3633 112.03 91.33 112.23C91.2967 112.423 91.3467 112.567 91.48 112.66C91.6133 112.747 91.8167 112.793 92.09 112.8L92.04 113C91.82 112.987 91.61 112.98 91.41 112.98C91.21 112.973 91.02 112.97 90.84 112.97C90.68 112.97 90.5467 112.973 90.44 112.98C90.3267 112.98 90.2167 112.987 90.11 113L90.16 112.8C90.26 112.773 90.3633 112.727 90.47 112.66C90.57 112.593 90.6833 112.497 90.81 112.37C90.93 112.243 91.06 112.077 91.2 111.87L95.47 105.87C95.5167 105.87 95.56 105.87 95.6 105.87C95.6467 105.87 95.6933 105.87 95.74 105.87L96.14 112.16C96.16 112.4 96.22 112.567 96.32 112.66C96.4267 112.747 96.53 112.793 96.63 112.8L96.59 113C96.4433 112.987 96.2567 112.98 96.03 112.98C95.8033 112.973 95.5867 112.97 95.38 112.97C95.12 112.97 94.8733 112.973 94.64 112.98C94.4067 112.98 94.22 112.987 94.08 113L94.12 112.8C94.44 112.787 94.6667 112.73 94.8 112.63C94.9333 112.523 94.9933 112.3 94.98 111.96L94.72 107.13L94.88 107L91.73 111.44ZM92.58 110.12H95.5L95.42 110.32H92.4L92.58 110.12ZM100.807 113H99.7572L100.957 108.7C100.984 108.613 101.004 108.527 101.017 108.44C101.037 108.347 101.034 108.27 101.007 108.21C100.981 108.15 100.917 108.12 100.817 108.12C100.684 108.12 100.561 108.187 100.447 108.32C100.341 108.453 100.224 108.7 100.097 109.06L99.9472 109.48H99.7572L100.007 108.74C100.154 108.333 100.334 108.06 100.547 107.92C100.767 107.78 100.997 107.71 101.237 107.71C101.451 107.71 101.607 107.753 101.707 107.84C101.807 107.927 101.867 108.04 101.887 108.18C101.914 108.313 101.914 108.463 101.887 108.63C101.867 108.79 101.837 108.95 101.797 109.11L100.807 113ZM101.217 111.05C101.457 110.41 101.687 109.877 101.907 109.45C102.134 109.017 102.354 108.673 102.567 108.42C102.781 108.167 102.997 107.987 103.217 107.88C103.444 107.767 103.681 107.71 103.927 107.71C104.247 107.71 104.467 107.783 104.587 107.93C104.714 108.077 104.771 108.267 104.757 108.5C104.751 108.727 104.707 108.967 104.627 109.22L103.657 112.15C103.591 112.33 103.567 112.473 103.587 112.58C103.607 112.68 103.681 112.73 103.807 112.73C103.921 112.73 104.034 112.667 104.147 112.54C104.267 112.413 104.394 112.163 104.527 111.79L104.677 111.38H104.867L104.617 112.11C104.524 112.39 104.404 112.603 104.257 112.75C104.117 112.897 103.967 112.997 103.807 113.05C103.654 113.11 103.504 113.14 103.357 113.14C103.191 113.14 103.051 113.113 102.937 113.06C102.824 113.007 102.737 112.933 102.677 112.84C102.597 112.713 102.567 112.553 102.587 112.36C102.607 112.16 102.661 111.933 102.747 111.68L103.677 108.87C103.711 108.77 103.737 108.66 103.757 108.54C103.777 108.42 103.774 108.317 103.747 108.23C103.721 108.137 103.637 108.09 103.497 108.09C103.351 108.09 103.191 108.163 103.017 108.31C102.844 108.457 102.661 108.667 102.467 108.94C102.281 109.207 102.097 109.523 101.917 109.89C101.737 110.257 101.564 110.657 101.397 111.09C101.231 111.517 101.077 111.97 100.937 112.45L101.217 111.05ZM110.576 107.91C110.383 107.91 110.193 107.997 110.006 108.17C109.819 108.343 109.643 108.58 109.476 108.88C109.316 109.173 109.173 109.503 109.046 109.87C108.919 110.237 108.819 110.617 108.746 111.01C108.679 111.403 108.646 111.777 108.646 112.13C108.646 112.41 108.686 112.617 108.766 112.75C108.853 112.877 108.976 112.94 109.136 112.94C109.329 112.94 109.519 112.853 109.706 112.68C109.893 112.507 110.069 112.273 110.236 111.98C110.403 111.687 110.546 111.36 110.666 111C110.793 110.633 110.889 110.253 110.956 109.86C111.029 109.467 111.066 109.087 111.066 108.72C111.066 108.427 111.026 108.22 110.946 108.1C110.866 107.973 110.743 107.91 110.576 107.91ZM107.626 111.54C107.626 111.247 107.666 110.927 107.746 110.58C107.826 110.233 107.949 109.89 108.116 109.55C108.283 109.21 108.483 108.903 108.716 108.63C108.956 108.35 109.236 108.127 109.556 107.96C109.883 107.793 110.243 107.71 110.636 107.71C111.083 107.71 111.436 107.843 111.696 108.11C111.956 108.37 112.086 108.77 112.086 109.31C112.086 109.603 112.046 109.923 111.966 110.27C111.886 110.617 111.763 110.96 111.596 111.3C111.429 111.64 111.226 111.95 110.986 112.23C110.753 112.503 110.473 112.723 110.146 112.89C109.826 113.057 109.469 113.14 109.076 113.14C108.629 113.14 108.276 113.007 108.016 112.74C107.756 112.473 107.626 112.073 107.626 111.54ZM115.906 113H114.856L116.056 108.7C116.082 108.613 116.102 108.527 116.116 108.44C116.136 108.347 116.132 108.27 116.106 108.21C116.079 108.15 116.016 108.12 115.916 108.12C115.782 108.12 115.659 108.187 115.546 108.32C115.439 108.453 115.322 108.7 115.196 109.06L115.046 109.48H114.856L115.106 108.74C115.252 108.333 115.432 108.06 115.646 107.92C115.866 107.78 116.096 107.71 116.336 107.71C116.549 107.71 116.706 107.753 116.806 107.84C116.906 107.927 116.966 108.04 116.986 108.18C117.012 108.313 117.012 108.463 116.986 108.63C116.966 108.79 116.936 108.95 116.896 109.11L115.906 113ZM116.316 111.05C116.556 110.41 116.786 109.877 117.006 109.45C117.232 109.017 117.452 108.673 117.666 108.42C117.879 108.167 118.096 107.987 118.316 107.88C118.542 107.767 118.779 107.71 119.026 107.71C119.346 107.71 119.566 107.783 119.686 107.93C119.812 108.077 119.869 108.267 119.856 108.5C119.849 108.727 119.806 108.967 119.726 109.22L118.756 112.15C118.689 112.33 118.666 112.473 118.686 112.58C118.706 112.68 118.779 112.73 118.906 112.73C119.019 112.73 119.132 112.667 119.246 112.54C119.366 112.413 119.492 112.163 119.626 111.79L119.776 111.38H119.966L119.716 112.11C119.622 112.39 119.502 112.603 119.356 112.75C119.216 112.897 119.066 112.997 118.906 113.05C118.752 113.11 118.602 113.14 118.456 113.14C118.289 113.14 118.149 113.113 118.036 113.06C117.922 113.007 117.836 112.933 117.776 112.84C117.696 112.713 117.666 112.553 117.686 112.36C117.706 112.16 117.759 111.933 117.846 111.68L118.776 108.87C118.809 108.77 118.836 108.66 118.856 108.54C118.876 108.42 118.872 108.317 118.846 108.23C118.819 108.137 118.736 108.09 118.596 108.09C118.449 108.09 118.289 108.163 118.116 108.31C117.942 108.457 117.759 108.667 117.566 108.94C117.379 109.207 117.196 109.523 117.016 109.89C116.836 110.257 116.662 110.657 116.496 111.09C116.329 111.517 116.176 111.97 116.036 112.45L116.316 111.05ZM125.455 112.53L124.655 113.42L123.875 108.72C123.841 108.52 123.805 108.383 123.765 108.31C123.725 108.23 123.661 108.19 123.575 108.19C123.508 108.19 123.431 108.247 123.345 108.36C123.258 108.467 123.151 108.697 123.025 109.05L122.885 109.46H122.695L122.945 108.73C123.085 108.323 123.258 108.053 123.465 107.92C123.671 107.78 123.888 107.71 124.115 107.71C124.348 107.71 124.528 107.78 124.655 107.92C124.788 108.053 124.881 108.307 124.935 108.68L125.455 112.53ZM123.195 114.4C123.495 114.247 123.808 114.037 124.135 113.77C124.461 113.51 124.798 113.157 125.145 112.71C125.531 112.223 125.878 111.683 126.185 111.09C126.491 110.497 126.711 109.907 126.845 109.32C126.718 109.247 126.588 109.16 126.455 109.06C126.328 108.953 126.221 108.833 126.135 108.7C126.055 108.567 126.018 108.417 126.025 108.25C126.038 108.077 126.095 107.943 126.195 107.85C126.295 107.757 126.428 107.71 126.595 107.71C126.788 107.71 126.928 107.783 127.015 107.93C127.108 108.07 127.155 108.277 127.155 108.55C127.155 108.883 127.098 109.243 126.985 109.63C126.878 110.01 126.728 110.4 126.535 110.8C126.348 111.2 126.138 111.587 125.905 111.96C125.671 112.327 125.431 112.663 125.185 112.97C125.045 113.143 124.868 113.333 124.655 113.54C124.448 113.753 124.211 113.96 123.945 114.16C123.685 114.36 123.395 114.527 123.075 114.66C122.895 114.74 122.735 114.797 122.595 114.83C122.461 114.863 122.351 114.88 122.265 114.88C122.105 114.88 121.971 114.84 121.865 114.76C121.751 114.68 121.695 114.567 121.695 114.42C121.695 114.267 121.755 114.143 121.875 114.05C121.988 113.957 122.125 113.91 122.285 113.91C122.458 113.91 122.618 113.957 122.765 114.05C122.918 114.15 123.061 114.267 123.195 114.4ZM130.789 113H129.739L130.939 108.7C130.966 108.633 130.982 108.557 130.989 108.47C131.002 108.377 130.999 108.297 130.979 108.23C130.959 108.157 130.902 108.12 130.809 108.12C130.669 108.12 130.542 108.193 130.429 108.34C130.316 108.48 130.199 108.72 130.079 109.06L129.929 109.48H129.739L129.989 108.74C130.089 108.467 130.209 108.257 130.349 108.11C130.489 107.963 130.636 107.86 130.789 107.8C130.949 107.74 131.102 107.71 131.249 107.71C131.456 107.71 131.609 107.753 131.709 107.84C131.809 107.927 131.869 108.043 131.889 108.19C131.909 108.33 131.906 108.48 131.879 108.64C131.852 108.8 131.819 108.957 131.779 109.11L130.789 113ZM133.479 108.87C133.519 108.737 133.546 108.613 133.559 108.5C133.579 108.387 133.572 108.293 133.539 108.22C133.512 108.147 133.442 108.11 133.329 108.11C133.156 108.11 132.966 108.217 132.759 108.43C132.552 108.643 132.342 108.943 132.129 109.33C131.916 109.717 131.706 110.167 131.499 110.68C131.299 111.193 131.116 111.75 130.949 112.35L131.189 111.05C131.489 110.223 131.772 109.567 132.039 109.08C132.306 108.587 132.579 108.237 132.859 108.03C133.139 107.817 133.446 107.71 133.779 107.71C133.999 107.71 134.159 107.757 134.259 107.85C134.366 107.937 134.432 108.057 134.459 108.21C134.486 108.357 134.486 108.52 134.459 108.7C134.432 108.873 134.396 109.047 134.349 109.22L133.319 113H132.239L133.479 108.87ZM136.039 108.87C136.099 108.677 136.129 108.503 136.129 108.35C136.129 108.19 136.066 108.11 135.939 108.11C135.759 108.11 135.569 108.213 135.369 108.42C135.169 108.627 134.959 108.927 134.739 109.32C134.526 109.713 134.309 110.183 134.089 110.73C133.869 111.277 133.652 111.89 133.439 112.57L133.599 111.53C133.852 110.817 134.089 110.217 134.309 109.73C134.529 109.237 134.746 108.843 134.959 108.55C135.179 108.25 135.402 108.037 135.629 107.91C135.862 107.777 136.116 107.71 136.389 107.71C136.669 107.71 136.862 107.787 136.969 107.94C137.082 108.093 137.132 108.283 137.119 108.51C137.112 108.737 137.069 108.973 136.989 109.22L136.009 112.15C135.942 112.35 135.922 112.497 135.949 112.59C135.976 112.683 136.046 112.73 136.159 112.73C136.272 112.73 136.389 112.667 136.509 112.54C136.629 112.413 136.756 112.163 136.889 111.79L137.029 111.38H137.219L136.969 112.11C136.876 112.39 136.759 112.603 136.619 112.75C136.479 112.897 136.329 112.997 136.169 113.05C136.016 113.11 135.866 113.14 135.719 113.14C135.539 113.14 135.396 113.113 135.289 113.06C135.182 113.007 135.099 112.933 135.039 112.84C134.952 112.713 134.919 112.553 134.939 112.36C134.966 112.16 135.019 111.933 135.099 111.68L136.039 108.87ZM142.941 107.91C142.748 107.91 142.558 107.997 142.371 108.17C142.184 108.343 142.008 108.58 141.841 108.88C141.681 109.173 141.538 109.503 141.411 109.87C141.284 110.237 141.184 110.617 141.111 111.01C141.044 111.403 141.011 111.777 141.011 112.13C141.011 112.41 141.051 112.617 141.131 112.75C141.218 112.877 141.341 112.94 141.501 112.94C141.694 112.94 141.884 112.853 142.071 112.68C142.258 112.507 142.434 112.273 142.601 111.98C142.768 111.687 142.911 111.36 143.031 111C143.158 110.633 143.254 110.253 143.321 109.86C143.394 109.467 143.431 109.087 143.431 108.72C143.431 108.427 143.391 108.22 143.311 108.1C143.231 107.973 143.108 107.91 142.941 107.91ZM139.991 111.54C139.991 111.247 140.031 110.927 140.111 110.58C140.191 110.233 140.314 109.89 140.481 109.55C140.648 109.21 140.848 108.903 141.081 108.63C141.321 108.35 141.601 108.127 141.921 107.96C142.248 107.793 142.608 107.71 143.001 107.71C143.448 107.71 143.801 107.843 144.061 108.11C144.321 108.37 144.451 108.77 144.451 109.31C144.451 109.603 144.411 109.923 144.331 110.27C144.251 110.617 144.128 110.96 143.961 111.3C143.794 111.64 143.591 111.95 143.351 112.23C143.118 112.503 142.838 112.723 142.511 112.89C142.191 113.057 141.834 113.14 141.441 113.14C140.994 113.14 140.641 113.007 140.381 112.74C140.121 112.473 139.991 112.073 139.991 111.54ZM150.89 109.52C150.644 110.213 150.41 110.793 150.19 111.26C149.97 111.72 149.75 112.09 149.53 112.37C149.317 112.643 149.097 112.84 148.87 112.96C148.644 113.08 148.41 113.14 148.17 113.14C147.877 113.14 147.66 113.077 147.52 112.95C147.387 112.817 147.317 112.637 147.31 112.41C147.304 112.183 147.347 111.923 147.44 111.63L148.41 108.7C148.477 108.5 148.497 108.353 148.47 108.26C148.45 108.167 148.38 108.12 148.26 108.12C148.147 108.12 148.03 108.183 147.91 108.31C147.797 108.437 147.674 108.687 147.54 109.06L147.39 109.47H147.2L147.45 108.74C147.55 108.46 147.67 108.247 147.81 108.1C147.957 107.953 148.107 107.853 148.26 107.8C148.42 107.74 148.57 107.71 148.71 107.71C149.004 107.71 149.207 107.777 149.32 107.91C149.434 108.043 149.484 108.223 149.47 108.45C149.464 108.67 149.414 108.91 149.32 109.17L148.39 111.98C148.217 112.5 148.277 112.76 148.57 112.76C148.717 112.76 148.877 112.687 149.05 112.54C149.224 112.387 149.4 112.17 149.58 111.89C149.767 111.61 149.95 111.28 150.13 110.9C150.31 110.52 150.484 110.1 150.65 109.64C150.817 109.18 150.967 108.693 151.1 108.18L150.89 109.52ZM151.03 112.15C150.984 112.323 150.96 112.463 150.96 112.57C150.967 112.677 151.034 112.73 151.16 112.73C151.3 112.73 151.427 112.66 151.54 112.52C151.66 112.373 151.777 112.13 151.89 111.79L152.04 111.37H152.23L151.98 112.11C151.887 112.383 151.77 112.593 151.63 112.74C151.49 112.887 151.34 112.99 151.18 113.05C151.027 113.11 150.874 113.14 150.72 113.14C150.594 113.14 150.477 113.113 150.37 113.06C150.27 113.013 150.194 112.943 150.14 112.85C150.08 112.73 150.057 112.583 150.07 112.41C150.084 112.237 150.124 112.013 150.19 111.74L151.18 107.85C151.387 107.843 151.58 107.83 151.76 107.81C151.947 107.79 152.117 107.757 152.27 107.71L151.03 112.15ZM155.442 112.85C155.495 112.877 155.552 112.9 155.612 112.92C155.679 112.933 155.769 112.94 155.882 112.94C156.155 112.94 156.382 112.857 156.562 112.69C156.742 112.517 156.832 112.273 156.832 111.96C156.832 111.753 156.789 111.543 156.702 111.33C156.622 111.117 156.489 110.877 156.302 110.61C156.149 110.383 156.002 110.16 155.862 109.94C155.729 109.713 155.662 109.45 155.662 109.15C155.662 108.863 155.732 108.613 155.872 108.4C156.012 108.187 156.205 108.02 156.452 107.9C156.705 107.773 156.989 107.71 157.302 107.71C157.509 107.71 157.712 107.737 157.912 107.79C158.119 107.837 158.289 107.927 158.422 108.06C158.555 108.193 158.622 108.387 158.622 108.64C158.622 108.713 158.602 108.797 158.562 108.89C158.529 108.983 158.475 109.063 158.402 109.13C158.329 109.197 158.232 109.23 158.112 109.23C157.985 109.23 157.879 109.183 157.792 109.09C157.705 108.997 157.662 108.877 157.662 108.73C157.662 108.59 157.689 108.46 157.742 108.34C157.795 108.213 157.865 108.1 157.952 108C157.839 107.933 157.689 107.9 157.502 107.9C157.255 107.9 157.052 107.98 156.892 108.14C156.739 108.3 156.662 108.523 156.662 108.81C156.662 108.963 156.685 109.103 156.732 109.23C156.779 109.35 156.849 109.477 156.942 109.61C157.035 109.743 157.142 109.903 157.262 110.09C157.435 110.363 157.575 110.617 157.682 110.85C157.795 111.083 157.852 111.327 157.852 111.58C157.852 111.88 157.772 112.15 157.612 112.39C157.459 112.623 157.249 112.807 156.982 112.94C156.715 113.073 156.412 113.14 156.072 113.14C155.832 113.14 155.599 113.103 155.372 113.03C155.152 112.963 154.972 112.857 154.832 112.71C154.692 112.557 154.622 112.35 154.622 112.09C154.622 111.97 154.659 111.85 154.732 111.73C154.799 111.61 154.912 111.55 155.072 111.55C155.239 111.55 155.359 111.62 155.432 111.76C155.512 111.893 155.552 112.05 155.552 112.23C155.552 112.363 155.539 112.48 155.512 112.58C155.485 112.68 155.462 112.77 155.442 112.85ZM171.387 105.85C171.32 106.023 171.23 106.277 171.117 106.61C171.003 106.937 170.897 107.363 170.797 107.89H170.597C170.617 107.797 170.63 107.7 170.637 107.6C170.65 107.5 170.657 107.407 170.657 107.32C170.657 107.073 170.603 106.85 170.497 106.65C170.397 106.443 170.243 106.283 170.037 106.17C169.83 106.05 169.56 105.99 169.227 105.99C168.853 105.99 168.537 106.087 168.277 106.28C168.023 106.473 167.897 106.78 167.897 107.2C167.897 107.447 167.957 107.68 168.077 107.9C168.197 108.113 168.347 108.32 168.527 108.52C168.713 108.72 168.913 108.92 169.127 109.12C169.34 109.32 169.54 109.527 169.727 109.74C169.913 109.947 170.067 110.167 170.187 110.4C170.307 110.633 170.367 110.89 170.367 111.17C170.367 111.517 170.283 111.817 170.117 112.07C169.957 112.317 169.747 112.52 169.487 112.68C169.233 112.833 168.953 112.947 168.647 113.02C168.347 113.1 168.05 113.14 167.757 113.14C167.477 113.14 167.24 113.117 167.047 113.07C166.86 113.023 166.703 112.963 166.577 112.89C166.45 112.817 166.337 112.747 166.237 112.68C166.163 112.627 166.093 112.59 166.027 112.57C165.967 112.543 165.917 112.53 165.877 112.53C165.79 112.53 165.717 112.573 165.657 112.66C165.603 112.747 165.54 112.883 165.467 113.07H165.267C165.327 112.923 165.39 112.753 165.457 112.56C165.523 112.367 165.597 112.12 165.677 111.82C165.757 111.513 165.847 111.13 165.947 110.67H166.147C166.113 110.803 166.087 110.937 166.067 111.07C166.053 111.203 166.05 111.337 166.057 111.47C166.077 111.93 166.217 112.29 166.477 112.55C166.743 112.803 167.147 112.93 167.687 112.93C168.127 112.93 168.47 112.833 168.717 112.64C168.97 112.447 169.097 112.15 169.097 111.75C169.097 111.47 169.04 111.22 168.927 111C168.82 110.773 168.68 110.563 168.507 110.37C168.34 110.17 168.16 109.977 167.967 109.79C167.773 109.603 167.59 109.41 167.417 109.21C167.25 109.01 167.113 108.79 167.007 108.55C166.9 108.31 166.847 108.043 166.847 107.75C166.847 107.423 166.913 107.137 167.047 106.89C167.18 106.643 167.357 106.44 167.577 106.28C167.797 106.113 168.04 105.99 168.307 105.91C168.58 105.823 168.853 105.78 169.127 105.78C169.447 105.78 169.713 105.82 169.927 105.9C170.147 105.973 170.347 106.077 170.527 106.21C170.6 106.263 170.663 106.307 170.717 106.34C170.777 106.367 170.823 106.38 170.857 106.38C170.95 106.38 171.06 106.203 171.187 105.85H171.387ZM177.191 109.52C176.944 110.213 176.711 110.793 176.491 111.26C176.271 111.72 176.051 112.09 175.831 112.37C175.618 112.643 175.398 112.84 175.171 112.96C174.944 113.08 174.711 113.14 174.471 113.14C174.178 113.14 173.961 113.077 173.821 112.95C173.688 112.817 173.618 112.637 173.611 112.41C173.604 112.183 173.648 111.923 173.741 111.63L174.711 108.7C174.778 108.5 174.798 108.353 174.771 108.26C174.751 108.167 174.681 108.12 174.561 108.12C174.448 108.12 174.331 108.183 174.211 108.31C174.098 108.437 173.974 108.687 173.841 109.06L173.691 109.47H173.501L173.751 108.74C173.851 108.46 173.971 108.247 174.111 108.1C174.258 107.953 174.408 107.853 174.561 107.8C174.721 107.74 174.871 107.71 175.011 107.71C175.304 107.71 175.508 107.777 175.621 107.91C175.734 108.043 175.784 108.223 175.771 108.45C175.764 108.67 175.714 108.91 175.621 109.17L174.691 111.98C174.518 112.5 174.578 112.76 174.871 112.76C175.018 112.76 175.178 112.687 175.351 112.54C175.524 112.387 175.701 112.17 175.881 111.89C176.068 111.61 176.251 111.28 176.431 110.9C176.611 110.52 176.784 110.1 176.951 109.64C177.118 109.18 177.268 108.693 177.401 108.18L177.191 109.52ZM177.331 112.15C177.284 112.323 177.261 112.463 177.261 112.57C177.268 112.677 177.334 112.73 177.461 112.73C177.601 112.73 177.728 112.66 177.841 112.52C177.961 112.373 178.078 112.13 178.191 111.79L178.341 111.37H178.531L178.281 112.11C178.188 112.383 178.071 112.593 177.931 112.74C177.791 112.887 177.641 112.99 177.481 113.05C177.328 113.11 177.174 113.14 177.021 113.14C176.894 113.14 176.778 113.113 176.671 113.06C176.571 113.013 176.494 112.943 176.441 112.85C176.381 112.73 176.358 112.583 176.371 112.41C176.384 112.237 176.424 112.013 176.491 111.74L177.481 107.85C177.688 107.843 177.881 107.83 178.061 107.81C178.248 107.79 178.418 107.757 178.571 107.71L177.331 112.15ZM184.882 108.1C184.722 108.1 184.542 108.21 184.342 108.43C184.149 108.65 183.952 108.947 183.752 109.32C183.552 109.693 183.362 110.117 183.182 110.59C183.002 111.063 182.852 111.553 182.732 112.06L182.912 111C183.179 110.207 183.436 109.57 183.682 109.09C183.929 108.61 184.182 108.26 184.442 108.04C184.702 107.82 184.976 107.71 185.262 107.71C185.602 107.71 185.869 107.833 186.062 108.08C186.262 108.32 186.362 108.68 186.362 109.16C186.362 109.467 186.319 109.8 186.232 110.16C186.152 110.513 186.029 110.867 185.862 111.22C185.702 111.567 185.502 111.887 185.262 112.18C185.022 112.473 184.749 112.707 184.442 112.88C184.136 113.053 183.792 113.14 183.412 113.14C183.212 113.14 183.029 113.087 182.862 112.98C182.702 112.873 182.589 112.723 182.522 112.53L182.602 112.34C182.689 112.54 182.786 112.683 182.892 112.77C183.006 112.85 183.136 112.89 183.282 112.89C183.496 112.89 183.702 112.807 183.902 112.64C184.102 112.467 184.286 112.237 184.452 111.95C184.626 111.663 184.776 111.347 184.902 111C185.036 110.653 185.136 110.303 185.202 109.95C185.269 109.597 185.302 109.267 185.302 108.96C185.302 108.653 185.266 108.433 185.192 108.3C185.119 108.167 185.016 108.1 184.882 108.1ZM183.312 106.36C183.512 106.347 183.706 106.327 183.892 106.3C184.079 106.273 184.256 106.23 184.422 106.17L182.232 113.84C182.146 114.14 182.179 114.34 182.332 114.44C182.486 114.547 182.719 114.6 183.032 114.6L182.972 114.81C182.832 114.803 182.632 114.793 182.372 114.78C182.112 114.773 181.839 114.77 181.552 114.77C181.326 114.77 181.096 114.773 180.862 114.78C180.629 114.793 180.456 114.803 180.342 114.81L180.402 114.6C180.642 114.6 180.816 114.553 180.922 114.46C181.029 114.373 181.116 114.213 181.182 113.98L183.312 106.36ZM181.282 109.45C181.536 109.197 181.772 108.943 181.992 108.69C182.219 108.437 182.436 108.137 182.642 107.79C182.856 107.443 183.069 107.003 183.282 106.47L183.312 106.63C183.172 107.09 183.002 107.493 182.802 107.84C182.602 108.18 182.382 108.49 182.142 108.77C181.909 109.05 181.659 109.32 181.392 109.58L181.282 109.45ZM192.598 108.1C192.438 108.1 192.258 108.21 192.058 108.43C191.864 108.65 191.668 108.947 191.468 109.32C191.268 109.693 191.078 110.117 190.898 110.59C190.718 111.063 190.568 111.553 190.448 112.06L190.628 111C190.894 110.207 191.151 109.57 191.398 109.09C191.644 108.61 191.898 108.26 192.158 108.04C192.418 107.82 192.691 107.71 192.978 107.71C193.318 107.71 193.584 107.833 193.778 108.08C193.978 108.32 194.078 108.68 194.078 109.16C194.078 109.467 194.034 109.8 193.948 110.16C193.868 110.513 193.744 110.867 193.578 111.22C193.418 111.567 193.218 111.887 192.978 112.18C192.738 112.473 192.464 112.707 192.158 112.88C191.851 113.053 191.508 113.14 191.128 113.14C190.928 113.14 190.744 113.087 190.578 112.98C190.418 112.873 190.304 112.723 190.238 112.53L190.318 112.34C190.404 112.54 190.501 112.683 190.608 112.77C190.721 112.85 190.851 112.89 190.998 112.89C191.211 112.89 191.418 112.807 191.618 112.64C191.818 112.467 192.001 112.237 192.168 111.95C192.341 111.663 192.491 111.347 192.618 111C192.751 110.653 192.851 110.303 192.918 109.95C192.984 109.597 193.018 109.267 193.018 108.96C193.018 108.653 192.981 108.433 192.908 108.3C192.834 108.167 192.731 108.1 192.598 108.1ZM191.028 106.36C191.228 106.347 191.421 106.327 191.608 106.3C191.794 106.273 191.971 106.23 192.138 106.17L189.948 113.84C189.861 114.14 189.894 114.34 190.048 114.44C190.201 114.547 190.434 114.6 190.748 114.6L190.688 114.81C190.548 114.803 190.348 114.793 190.088 114.78C189.828 114.773 189.554 114.77 189.268 114.77C189.041 114.77 188.811 114.773 188.578 114.78C188.344 114.793 188.171 114.803 188.058 114.81L188.118 114.6C188.358 114.6 188.531 114.553 188.638 114.46C188.744 114.373 188.831 114.213 188.898 113.98L191.028 106.36ZM188.998 109.45C189.251 109.197 189.488 108.943 189.708 108.69C189.934 108.437 190.151 108.137 190.358 107.79C190.571 107.443 190.784 107.003 190.998 106.47L191.028 106.63C190.888 107.09 190.718 107.493 190.518 107.84C190.318 108.18 190.098 108.49 189.858 108.77C189.624 109.05 189.374 109.32 189.108 109.58L188.998 109.45ZM199.663 107.91C199.469 107.91 199.279 107.997 199.093 108.17C198.906 108.343 198.729 108.58 198.563 108.88C198.403 109.173 198.259 109.503 198.133 109.87C198.006 110.237 197.906 110.617 197.833 111.01C197.766 111.403 197.733 111.777 197.733 112.13C197.733 112.41 197.773 112.617 197.853 112.75C197.939 112.877 198.063 112.94 198.223 112.94C198.416 112.94 198.606 112.853 198.793 112.68C198.979 112.507 199.156 112.273 199.323 111.98C199.489 111.687 199.633 111.36 199.753 111C199.879 110.633 199.976 110.253 200.043 109.86C200.116 109.467 200.153 109.087 200.153 108.72C200.153 108.427 200.113 108.22 200.033 108.1C199.953 107.973 199.829 107.91 199.663 107.91ZM196.713 111.54C196.713 111.247 196.753 110.927 196.833 110.58C196.913 110.233 197.036 109.89 197.203 109.55C197.369 109.21 197.569 108.903 197.803 108.63C198.043 108.35 198.323 108.127 198.643 107.96C198.969 107.793 199.329 107.71 199.723 107.71C200.169 107.71 200.523 107.843 200.783 108.11C201.043 108.37 201.173 108.77 201.173 109.31C201.173 109.603 201.133 109.923 201.053 110.27C200.973 110.617 200.849 110.96 200.683 111.3C200.516 111.64 200.313 111.95 200.073 112.23C199.839 112.503 199.559 112.723 199.233 112.89C198.913 113.057 198.556 113.14 198.163 113.14C197.716 113.14 197.363 113.007 197.103 112.74C196.843 112.473 196.713 112.073 196.713 111.54ZM204.982 113H203.932L205.132 108.7C205.192 108.487 205.212 108.337 205.192 108.25C205.172 108.163 205.109 108.12 205.002 108.12C204.869 108.12 204.746 108.19 204.632 108.33C204.519 108.47 204.399 108.713 204.272 109.06L204.122 109.48H203.932L204.182 108.74C204.282 108.467 204.402 108.257 204.542 108.11C204.682 107.963 204.829 107.86 204.982 107.8C205.142 107.74 205.299 107.71 205.452 107.71C205.659 107.71 205.809 107.753 205.902 107.84C205.996 107.927 206.052 108.04 206.072 108.18C206.092 108.32 206.089 108.473 206.062 108.64C206.042 108.8 206.012 108.957 205.972 109.11L204.982 113ZM207.542 107.95C207.396 107.95 207.242 108.013 207.082 108.14C206.922 108.26 206.759 108.443 206.592 108.69C206.426 108.937 206.256 109.247 206.082 109.62C205.916 109.993 205.746 110.43 205.572 110.93C205.406 111.423 205.239 111.983 205.072 112.61L205.312 111.31C205.526 110.63 205.726 110.06 205.912 109.6C206.099 109.14 206.282 108.773 206.462 108.5C206.649 108.22 206.839 108.02 207.032 107.9C207.232 107.773 207.446 107.71 207.672 107.71C207.886 107.71 208.049 107.773 208.162 107.9C208.282 108.02 208.342 108.173 208.342 108.36C208.342 108.513 208.306 108.653 208.232 108.78C208.159 108.9 208.062 109 207.942 109.08C207.829 109.153 207.699 109.19 207.552 109.19C207.412 109.19 207.299 109.153 207.212 109.08C207.126 109 207.082 108.89 207.082 108.75C207.082 108.623 207.109 108.51 207.162 108.41C207.216 108.31 207.286 108.223 207.372 108.15C207.459 108.077 207.556 108.023 207.662 107.99C207.649 107.977 207.632 107.967 207.612 107.96C207.592 107.953 207.569 107.95 207.542 107.95ZM214.006 107.85L213.976 108.05H210.746L210.796 107.85H214.006ZM211.516 112.15C211.463 112.357 211.476 112.507 211.556 112.6C211.636 112.687 211.743 112.73 211.876 112.73C212.023 112.73 212.17 112.667 212.316 112.54C212.463 112.407 212.603 112.153 212.736 111.78L212.876 111.38H213.066L212.856 111.99C212.716 112.417 212.526 112.717 212.286 112.89C212.046 113.057 211.766 113.14 211.446 113.14C211.16 113.14 210.94 113.08 210.786 112.96C210.64 112.833 210.553 112.66 210.526 112.44C210.5 112.213 210.526 111.96 210.606 111.68L212.136 106.34C212.336 106.333 212.526 106.32 212.706 106.3C212.893 106.28 213.063 106.247 213.216 106.2L211.516 112.15ZM215.674 112.6C215.674 112.38 215.758 112.187 215.924 112.02C216.091 111.853 216.281 111.77 216.494 111.77C216.668 111.77 216.804 111.823 216.904 111.93C217.004 112.03 217.054 112.16 217.054 112.32C217.054 112.467 217.014 112.603 216.934 112.73C216.861 112.85 216.761 112.947 216.634 113.02C216.514 113.1 216.381 113.14 216.234 113.14C216.061 113.14 215.924 113.09 215.824 112.99C215.724 112.89 215.674 112.76 215.674 112.6ZM227.392 109.46C227.699 109.473 227.942 109.49 228.122 109.51C228.302 109.523 228.449 109.537 228.562 109.55C228.682 109.557 228.795 109.57 228.902 109.59C229.129 109.623 229.329 109.667 229.502 109.72C229.682 109.773 229.829 109.85 229.942 109.95C230.062 110.05 230.149 110.18 230.202 110.34C230.255 110.493 230.272 110.69 230.252 110.93L230.152 111.95C230.132 112.157 230.142 112.34 230.182 112.5C230.222 112.66 230.315 112.737 230.462 112.73C230.589 112.723 230.699 112.653 230.792 112.52C230.885 112.38 230.975 112.183 231.062 111.93L231.112 111.79H231.342L231.302 111.92C231.189 112.327 231.029 112.633 230.822 112.84C230.622 113.04 230.349 113.14 230.002 113.14C229.629 113.14 229.359 113.04 229.192 112.84C229.032 112.633 228.965 112.39 228.992 112.11L229.102 110.99C229.129 110.663 229.105 110.4 229.032 110.2C228.965 110 228.805 109.857 228.552 109.77C228.299 109.677 227.905 109.63 227.372 109.63L227.392 109.46ZM227.272 109.63L227.322 109.43H227.732C228.159 109.43 228.525 109.38 228.832 109.28C229.145 109.173 229.399 109.02 229.592 108.82C229.792 108.62 229.939 108.387 230.032 108.12C230.132 107.853 230.182 107.56 230.182 107.24C230.182 106.86 230.089 106.58 229.902 106.4C229.722 106.213 229.429 106.12 229.022 106.12C228.762 106.12 228.575 106.173 228.462 106.28C228.355 106.387 228.259 106.597 228.172 106.91L226.832 111.94C226.779 112.147 226.749 112.313 226.742 112.44C226.735 112.56 226.782 112.65 226.882 112.71C226.989 112.763 227.169 112.793 227.422 112.8L227.382 113C227.215 112.987 227.012 112.98 226.772 112.98C226.539 112.973 226.292 112.97 226.032 112.97C225.752 112.97 225.485 112.973 225.232 112.98C224.979 112.98 224.775 112.987 224.622 113L224.662 112.8C224.889 112.787 225.065 112.76 225.192 112.72C225.319 112.68 225.419 112.6 225.492 112.48C225.565 112.36 225.632 112.18 225.692 111.94L227.012 106.98C227.072 106.767 227.099 106.6 227.092 106.48C227.092 106.36 227.042 106.27 226.942 106.21C226.842 106.15 226.669 106.12 226.422 106.12L226.472 105.92C226.572 105.927 226.695 105.933 226.842 105.94C226.989 105.94 227.145 105.943 227.312 105.95C227.485 105.95 227.645 105.95 227.792 105.95C228.059 105.95 228.312 105.947 228.552 105.94C228.792 105.933 229.032 105.93 229.272 105.93C229.992 105.93 230.525 106.053 230.872 106.3C231.219 106.547 231.392 106.89 231.392 107.33C231.392 107.783 231.235 108.18 230.922 108.52C230.609 108.86 230.172 109.13 229.612 109.33C229.052 109.523 228.405 109.62 227.672 109.62L227.272 109.63ZM234.879 110.76C235.219 110.64 235.529 110.517 235.809 110.39C236.096 110.263 236.329 110.127 236.509 109.98C236.756 109.773 236.949 109.53 237.089 109.25C237.236 108.963 237.309 108.65 237.309 108.31C237.309 108.137 237.296 108.027 237.269 107.98C237.242 107.927 237.202 107.9 237.149 107.9C236.989 107.9 236.816 107.973 236.629 108.12C236.449 108.267 236.269 108.47 236.089 108.73C235.909 108.983 235.742 109.273 235.589 109.6C235.442 109.92 235.322 110.263 235.229 110.63C235.142 110.99 235.099 111.347 235.099 111.7C235.099 112.047 235.162 112.293 235.289 112.44C235.422 112.587 235.596 112.66 235.809 112.66C236.029 112.66 236.272 112.593 236.539 112.46C236.806 112.32 237.069 112.073 237.329 111.72L237.489 111.8C237.356 112.02 237.182 112.233 236.969 112.44C236.756 112.647 236.512 112.817 236.239 112.95C235.972 113.077 235.682 113.14 235.369 113.14C235.096 113.14 234.852 113.087 234.639 112.98C234.426 112.873 234.259 112.717 234.139 112.51C234.026 112.297 233.969 112.037 233.969 111.73C233.969 111.423 234.022 111.09 234.129 110.73C234.242 110.363 234.399 110.003 234.599 109.65C234.806 109.297 235.049 108.973 235.329 108.68C235.609 108.38 235.922 108.143 236.269 107.97C236.616 107.797 236.982 107.71 237.369 107.71C237.609 107.71 237.809 107.77 237.969 107.89C238.129 108.003 238.209 108.177 238.209 108.41C238.209 108.677 238.132 108.927 237.979 109.16C237.832 109.387 237.632 109.593 237.379 109.78C237.126 109.967 236.849 110.133 236.549 110.28C236.256 110.427 235.959 110.553 235.659 110.66C235.366 110.767 235.102 110.853 234.869 110.92L234.879 110.76ZM241.863 112.75C242.009 112.75 242.173 112.663 242.353 112.49C242.533 112.317 242.716 112.08 242.903 111.78C243.089 111.473 243.263 111.12 243.423 110.72C243.583 110.32 243.716 109.893 243.823 109.44L243.643 110.53C243.416 111.163 243.183 111.673 242.943 112.06C242.709 112.44 242.469 112.717 242.223 112.89C241.976 113.057 241.723 113.14 241.463 113.14C241.129 113.14 240.879 113.03 240.713 112.81C240.546 112.583 240.463 112.287 240.463 111.92C240.463 111.587 240.516 111.23 240.623 110.85C240.736 110.47 240.889 110.093 241.083 109.72C241.283 109.347 241.509 109.01 241.763 108.71C242.016 108.41 242.289 108.17 242.583 107.99C242.876 107.803 243.169 107.71 243.463 107.71C243.689 107.71 243.863 107.817 243.983 108.03C244.109 108.237 244.139 108.54 244.073 108.94L243.963 109C244.009 108.687 243.989 108.437 243.903 108.25C243.823 108.057 243.689 107.96 243.503 107.96C243.343 107.96 243.173 108.043 242.993 108.21C242.813 108.37 242.636 108.593 242.463 108.88C242.296 109.16 242.139 109.477 241.993 109.83C241.853 110.183 241.743 110.55 241.663 110.93C241.583 111.303 241.543 111.67 241.543 112.03C241.543 112.297 241.569 112.483 241.623 112.59C241.683 112.697 241.763 112.75 241.863 112.75ZM244.253 107.85C244.453 107.843 244.646 107.83 244.833 107.81C245.019 107.79 245.193 107.757 245.353 107.71L244.083 112.14C244.063 112.213 244.043 112.297 244.023 112.39C244.009 112.477 244.013 112.553 244.033 112.62C244.059 112.687 244.123 112.72 244.223 112.72C244.343 112.72 244.463 112.657 244.583 112.53C244.703 112.397 244.823 112.147 244.943 111.78L245.083 111.37H245.273L245.023 112.1C244.929 112.373 244.816 112.583 244.683 112.73C244.549 112.877 244.406 112.98 244.253 113.04C244.106 113.107 243.963 113.14 243.823 113.14C243.529 113.14 243.323 113.047 243.203 112.86C243.116 112.713 243.086 112.537 243.113 112.33C243.146 112.117 243.193 111.897 243.253 111.67L244.253 107.85ZM249.004 112.15C248.958 112.337 248.944 112.48 248.964 112.58C248.991 112.68 249.061 112.73 249.174 112.73C249.288 112.73 249.401 112.663 249.514 112.53C249.628 112.397 249.748 112.15 249.874 111.79L250.024 111.38H250.214L249.964 112.11C249.878 112.37 249.768 112.577 249.634 112.73C249.501 112.877 249.358 112.98 249.204 113.04C249.051 113.107 248.891 113.14 248.724 113.14C248.504 113.14 248.338 113.1 248.224 113.02C248.111 112.94 248.034 112.83 247.994 112.69C247.961 112.543 247.954 112.383 247.974 112.21C248.001 112.037 248.041 111.86 248.094 111.68L249.704 106.33C249.771 106.103 249.764 105.937 249.684 105.83C249.604 105.723 249.401 105.67 249.074 105.67L249.144 105.46C249.544 105.453 249.898 105.417 250.204 105.35C250.518 105.277 250.818 105.177 251.104 105.05L249.004 112.15ZM264.333 105.92C264.233 106.18 264.13 106.497 264.023 106.87C263.916 107.237 263.806 107.687 263.693 108.22H263.473C263.526 107.873 263.546 107.58 263.533 107.34C263.526 107.1 263.476 106.893 263.383 106.72C263.256 106.473 263.08 106.29 262.853 106.17C262.626 106.043 262.38 105.98 262.113 105.98C261.773 105.98 261.443 106.08 261.123 106.28C260.803 106.473 260.506 106.74 260.233 107.08C259.96 107.413 259.716 107.793 259.503 108.22C259.296 108.647 259.133 109.097 259.013 109.57C258.9 110.037 258.843 110.497 258.843 110.95C258.843 111.617 258.97 112.113 259.223 112.44C259.476 112.76 259.82 112.92 260.253 112.92C260.52 112.92 260.806 112.857 261.113 112.73C261.426 112.603 261.7 112.42 261.933 112.18C262.113 112 262.266 111.79 262.393 111.55C262.526 111.303 262.673 110.987 262.833 110.6H263.053C262.886 111.207 262.756 111.697 262.663 112.07C262.576 112.437 262.51 112.747 262.463 113H262.243C262.263 112.86 262.273 112.747 262.273 112.66C262.273 112.513 262.246 112.43 262.193 112.41C262.14 112.39 262.056 112.417 261.943 112.49C261.763 112.61 261.58 112.72 261.393 112.82C261.213 112.913 261.013 112.99 260.793 113.05C260.573 113.11 260.32 113.14 260.033 113.14C259.24 113.14 258.633 112.937 258.213 112.53C257.793 112.123 257.583 111.53 257.583 110.75C257.583 110.29 257.653 109.827 257.793 109.36C257.94 108.887 258.146 108.437 258.413 108.01C258.686 107.583 259.006 107.203 259.373 106.87C259.746 106.537 260.16 106.273 260.613 106.08C261.073 105.88 261.563 105.78 262.083 105.78C262.37 105.78 262.603 105.813 262.783 105.88C262.963 105.94 263.113 106.02 263.233 106.12C263.36 106.213 263.473 106.317 263.573 106.43C263.666 106.523 263.753 106.533 263.833 106.46C263.92 106.387 264.016 106.207 264.123 105.92H264.333ZM269.091 107.91C268.898 107.91 268.708 107.997 268.521 108.17C268.334 108.343 268.158 108.58 267.991 108.88C267.831 109.173 267.688 109.503 267.561 109.87C267.434 110.237 267.334 110.617 267.261 111.01C267.194 111.403 267.161 111.777 267.161 112.13C267.161 112.41 267.201 112.617 267.281 112.75C267.368 112.877 267.491 112.94 267.651 112.94C267.844 112.94 268.034 112.853 268.221 112.68C268.408 112.507 268.584 112.273 268.751 111.98C268.918 111.687 269.061 111.36 269.181 111C269.308 110.633 269.404 110.253 269.471 109.86C269.544 109.467 269.581 109.087 269.581 108.72C269.581 108.427 269.541 108.22 269.461 108.1C269.381 107.973 269.258 107.91 269.091 107.91ZM266.141 111.54C266.141 111.247 266.181 110.927 266.261 110.58C266.341 110.233 266.464 109.89 266.631 109.55C266.798 109.21 266.998 108.903 267.231 108.63C267.471 108.35 267.751 108.127 268.071 107.96C268.398 107.793 268.758 107.71 269.151 107.71C269.598 107.71 269.951 107.843 270.211 108.11C270.471 108.37 270.601 108.77 270.601 109.31C270.601 109.603 270.561 109.923 270.481 110.27C270.401 110.617 270.278 110.96 270.111 111.3C269.944 111.64 269.741 111.95 269.501 112.23C269.268 112.503 268.988 112.723 268.661 112.89C268.341 113.057 267.984 113.14 267.591 113.14C267.144 113.14 266.791 113.007 266.531 112.74C266.271 112.473 266.141 112.073 266.141 111.54ZM274.42 113H273.37L274.57 108.7C274.597 108.613 274.617 108.527 274.63 108.44C274.65 108.347 274.647 108.27 274.62 108.21C274.594 108.15 274.53 108.12 274.43 108.12C274.297 108.12 274.174 108.187 274.06 108.32C273.954 108.453 273.837 108.7 273.71 109.06L273.56 109.48H273.37L273.62 108.74C273.767 108.333 273.947 108.06 274.16 107.92C274.38 107.78 274.61 107.71 274.85 107.71C275.064 107.71 275.22 107.753 275.32 107.84C275.42 107.927 275.48 108.04 275.5 108.18C275.527 108.313 275.527 108.463 275.5 108.63C275.48 108.79 275.45 108.95 275.41 109.11L274.42 113ZM274.83 111.05C275.07 110.41 275.3 109.877 275.52 109.45C275.747 109.017 275.967 108.673 276.18 108.42C276.394 108.167 276.61 107.987 276.83 107.88C277.057 107.767 277.294 107.71 277.54 107.71C277.86 107.71 278.08 107.783 278.2 107.93C278.327 108.077 278.384 108.267 278.37 108.5C278.364 108.727 278.32 108.967 278.24 109.22L277.27 112.15C277.204 112.33 277.18 112.473 277.2 112.58C277.22 112.68 277.294 112.73 277.42 112.73C277.534 112.73 277.647 112.667 277.76 112.54C277.88 112.413 278.007 112.163 278.14 111.79L278.29 111.38H278.48L278.23 112.11C278.137 112.39 278.017 112.603 277.87 112.75C277.73 112.897 277.58 112.997 277.42 113.05C277.267 113.11 277.117 113.14 276.97 113.14C276.804 113.14 276.664 113.113 276.55 113.06C276.437 113.007 276.35 112.933 276.29 112.84C276.21 112.713 276.18 112.553 276.2 112.36C276.22 112.16 276.274 111.933 276.36 111.68L277.29 108.87C277.324 108.77 277.35 108.66 277.37 108.54C277.39 108.42 277.387 108.317 277.36 108.23C277.334 108.137 277.25 108.09 277.11 108.09C276.964 108.09 276.804 108.163 276.63 108.31C276.457 108.457 276.274 108.667 276.08 108.94C275.894 109.207 275.71 109.523 275.53 109.89C275.35 110.257 275.177 110.657 275.01 111.09C274.844 111.517 274.69 111.97 274.55 112.45L274.83 111.05ZM285.779 109.38C285.566 109.273 285.373 109.12 285.199 108.92C285.026 108.72 284.946 108.48 284.959 108.2C284.973 108.027 285.029 107.9 285.129 107.82C285.236 107.74 285.349 107.7 285.469 107.7C285.709 107.7 285.876 107.823 285.969 108.07C286.063 108.317 286.093 108.637 286.059 109.03C286.019 109.417 285.946 109.807 285.839 110.2C285.733 110.587 285.589 110.957 285.409 111.31C285.236 111.663 285.023 111.98 284.769 112.26C284.523 112.533 284.239 112.75 283.919 112.91C283.606 113.063 283.256 113.14 282.869 113.14C282.543 113.14 282.289 113.08 282.109 112.96C281.929 112.833 281.803 112.677 281.729 112.49C281.656 112.297 281.626 112.1 281.639 111.9C281.659 111.513 281.776 111.107 281.989 110.68C282.203 110.253 282.486 109.82 282.839 109.38C283.199 108.94 283.613 108.513 284.079 108.1C283.953 108.133 283.826 108.19 283.699 108.27C283.573 108.343 283.453 108.42 283.339 108.5C283.226 108.58 283.116 108.65 283.009 108.71C282.903 108.763 282.799 108.79 282.699 108.79C282.573 108.79 282.466 108.753 282.379 108.68C282.293 108.6 282.196 108.56 282.089 108.56C281.983 108.56 281.896 108.603 281.829 108.69C281.769 108.77 281.703 108.917 281.629 109.13L281.529 109.47H281.339L281.559 108.74C281.673 108.333 281.813 108.06 281.979 107.92C282.153 107.78 282.326 107.71 282.499 107.71C282.626 107.71 282.733 107.743 282.819 107.81C282.906 107.87 282.996 107.93 283.089 107.99C283.183 108.05 283.299 108.08 283.439 108.08C283.586 108.08 283.726 108.06 283.859 108.02C283.999 107.973 284.129 107.9 284.249 107.8L284.349 107.61L284.559 107.71C284.299 108.043 284.066 108.38 283.859 108.72C283.659 109.06 283.486 109.403 283.339 109.75C283.193 110.09 283.076 110.43 282.989 110.77C282.903 111.103 282.846 111.437 282.819 111.77C282.793 112.123 282.819 112.38 282.899 112.54C282.979 112.693 283.096 112.77 283.249 112.77C283.543 112.77 283.813 112.693 284.059 112.54C284.313 112.387 284.539 112.187 284.739 111.94C284.939 111.687 285.113 111.41 285.259 111.11C285.406 110.803 285.523 110.5 285.609 110.2C285.696 109.9 285.753 109.627 285.779 109.38ZM289.462 110.76C289.802 110.64 290.112 110.517 290.392 110.39C290.679 110.263 290.912 110.127 291.092 109.98C291.339 109.773 291.532 109.53 291.672 109.25C291.819 108.963 291.892 108.65 291.892 108.31C291.892 108.137 291.879 108.027 291.852 107.98C291.825 107.927 291.785 107.9 291.732 107.9C291.572 107.9 291.399 107.973 291.212 108.12C291.032 108.267 290.852 108.47 290.672 108.73C290.492 108.983 290.325 109.273 290.172 109.6C290.025 109.92 289.905 110.263 289.812 110.63C289.725 110.99 289.682 111.347 289.682 111.7C289.682 112.047 289.745 112.293 289.872 112.44C290.005 112.587 290.179 112.66 290.392 112.66C290.612 112.66 290.855 112.593 291.122 112.46C291.389 112.32 291.652 112.073 291.912 111.72L292.072 111.8C291.939 112.02 291.765 112.233 291.552 112.44C291.339 112.647 291.095 112.817 290.822 112.95C290.555 113.077 290.265 113.14 289.952 113.14C289.679 113.14 289.435 113.087 289.222 112.98C289.009 112.873 288.842 112.717 288.722 112.51C288.609 112.297 288.552 112.037 288.552 111.73C288.552 111.423 288.605 111.09 288.712 110.73C288.825 110.363 288.982 110.003 289.182 109.65C289.389 109.297 289.632 108.973 289.912 108.68C290.192 108.38 290.505 108.143 290.852 107.97C291.199 107.797 291.565 107.71 291.952 107.71C292.192 107.71 292.392 107.77 292.552 107.89C292.712 108.003 292.792 108.177 292.792 108.41C292.792 108.677 292.715 108.927 292.562 109.16C292.415 109.387 292.215 109.593 291.962 109.78C291.709 109.967 291.432 110.133 291.132 110.28C290.839 110.427 290.542 110.553 290.242 110.66C289.949 110.767 289.685 110.853 289.452 110.92L289.462 110.76ZM296.316 113H295.266L296.466 108.7C296.526 108.487 296.546 108.337 296.526 108.25C296.506 108.163 296.443 108.12 296.336 108.12C296.203 108.12 296.079 108.19 295.966 108.33C295.853 108.47 295.733 108.713 295.606 109.06L295.456 109.48H295.266L295.516 108.74C295.616 108.467 295.736 108.257 295.876 108.11C296.016 107.963 296.163 107.86 296.316 107.8C296.476 107.74 296.633 107.71 296.786 107.71C296.993 107.71 297.143 107.753 297.236 107.84C297.329 107.927 297.386 108.04 297.406 108.18C297.426 108.32 297.423 108.473 297.396 108.64C297.376 108.8 297.346 108.957 297.306 109.11L296.316 113ZM298.876 107.95C298.729 107.95 298.576 108.013 298.416 108.14C298.256 108.26 298.093 108.443 297.926 108.69C297.759 108.937 297.589 109.247 297.416 109.62C297.249 109.993 297.079 110.43 296.906 110.93C296.739 111.423 296.573 111.983 296.406 112.61L296.646 111.31C296.859 110.63 297.059 110.06 297.246 109.6C297.433 109.14 297.616 108.773 297.796 108.5C297.983 108.22 298.173 108.02 298.366 107.9C298.566 107.773 298.779 107.71 299.006 107.71C299.219 107.71 299.383 107.773 299.496 107.9C299.616 108.02 299.676 108.173 299.676 108.36C299.676 108.513 299.639 108.653 299.566 108.78C299.493 108.9 299.396 109 299.276 109.08C299.163 109.153 299.033 109.19 298.886 109.19C298.746 109.19 298.633 109.153 298.546 109.08C298.459 109 298.416 108.89 298.416 108.75C298.416 108.623 298.443 108.51 298.496 108.41C298.549 108.31 298.619 108.223 298.706 108.15C298.793 108.077 298.889 108.023 298.996 107.99C298.983 107.977 298.966 107.967 298.946 107.96C298.926 107.953 298.903 107.95 298.876 107.95ZM302.14 112.85C302.193 112.877 302.25 112.9 302.31 112.92C302.377 112.933 302.467 112.94 302.58 112.94C302.853 112.94 303.08 112.857 303.26 112.69C303.44 112.517 303.53 112.273 303.53 111.96C303.53 111.753 303.487 111.543 303.4 111.33C303.32 111.117 303.187 110.877 303 110.61C302.847 110.383 302.7 110.16 302.56 109.94C302.427 109.713 302.36 109.45 302.36 109.15C302.36 108.863 302.43 108.613 302.57 108.4C302.71 108.187 302.903 108.02 303.15 107.9C303.403 107.773 303.687 107.71 304 107.71C304.207 107.71 304.41 107.737 304.61 107.79C304.817 107.837 304.987 107.927 305.12 108.06C305.253 108.193 305.32 108.387 305.32 108.64C305.32 108.713 305.3 108.797 305.26 108.89C305.227 108.983 305.173 109.063 305.1 109.13C305.027 109.197 304.93 109.23 304.81 109.23C304.683 109.23 304.577 109.183 304.49 109.09C304.403 108.997 304.36 108.877 304.36 108.73C304.36 108.59 304.387 108.46 304.44 108.34C304.493 108.213 304.563 108.1 304.65 108C304.537 107.933 304.387 107.9 304.2 107.9C303.953 107.9 303.75 107.98 303.59 108.14C303.437 108.3 303.36 108.523 303.36 108.81C303.36 108.963 303.383 109.103 303.43 109.23C303.477 109.35 303.547 109.477 303.64 109.61C303.733 109.743 303.84 109.903 303.96 110.09C304.133 110.363 304.273 110.617 304.38 110.85C304.493 111.083 304.55 111.327 304.55 111.58C304.55 111.88 304.47 112.15 304.31 112.39C304.157 112.623 303.947 112.807 303.68 112.94C303.413 113.073 303.11 113.14 302.77 113.14C302.53 113.14 302.297 113.103 302.07 113.03C301.85 112.963 301.67 112.857 301.53 112.71C301.39 112.557 301.32 112.35 301.32 112.09C301.32 111.97 301.357 111.85 301.43 111.73C301.497 111.61 301.61 111.55 301.77 111.55C301.937 111.55 302.057 111.62 302.13 111.76C302.21 111.893 302.25 112.05 302.25 112.23C302.25 112.363 302.237 112.48 302.21 112.58C302.183 112.68 302.16 112.77 302.14 112.85ZM308.996 112.75C309.142 112.75 309.306 112.663 309.486 112.49C309.666 112.317 309.849 112.08 310.036 111.78C310.222 111.473 310.396 111.12 310.556 110.72C310.716 110.32 310.849 109.893 310.956 109.44L310.776 110.53C310.549 111.163 310.316 111.673 310.076 112.06C309.842 112.44 309.602 112.717 309.356 112.89C309.109 113.057 308.856 113.14 308.596 113.14C308.262 113.14 308.012 113.03 307.846 112.81C307.679 112.583 307.596 112.287 307.596 111.92C307.596 111.587 307.649 111.23 307.756 110.85C307.869 110.47 308.022 110.093 308.216 109.72C308.416 109.347 308.642 109.01 308.896 108.71C309.149 108.41 309.422 108.17 309.716 107.99C310.009 107.803 310.302 107.71 310.596 107.71C310.822 107.71 310.996 107.817 311.116 108.03C311.242 108.237 311.272 108.54 311.206 108.94L311.096 109C311.142 108.687 311.122 108.437 311.036 108.25C310.956 108.057 310.822 107.96 310.636 107.96C310.476 107.96 310.306 108.043 310.126 108.21C309.946 108.37 309.769 108.593 309.596 108.88C309.429 109.16 309.272 109.477 309.126 109.83C308.986 110.183 308.876 110.55 308.796 110.93C308.716 111.303 308.676 111.67 308.676 112.03C308.676 112.297 308.702 112.483 308.756 112.59C308.816 112.697 308.896 112.75 308.996 112.75ZM311.386 107.85C311.586 107.843 311.779 107.83 311.966 107.81C312.152 107.79 312.326 107.757 312.486 107.71L311.216 112.14C311.196 112.213 311.176 112.297 311.156 112.39C311.142 112.477 311.146 112.553 311.166 112.62C311.192 112.687 311.256 112.72 311.356 112.72C311.476 112.72 311.596 112.657 311.716 112.53C311.836 112.397 311.956 112.147 312.076 111.78L312.216 111.37H312.406L312.156 112.1C312.062 112.373 311.949 112.583 311.816 112.73C311.682 112.877 311.539 112.98 311.386 113.04C311.239 113.107 311.096 113.14 310.956 113.14C310.662 113.14 310.456 113.047 310.336 112.86C310.249 112.713 310.219 112.537 310.246 112.33C310.279 112.117 310.326 111.897 310.386 111.67L311.386 107.85ZM318.827 107.85L318.797 108.05H315.567L315.617 107.85H318.827ZM316.337 112.15C316.284 112.357 316.297 112.507 316.377 112.6C316.457 112.687 316.564 112.73 316.697 112.73C316.844 112.73 316.99 112.667 317.137 112.54C317.284 112.407 317.424 112.153 317.557 111.78L317.697 111.38H317.887L317.677 111.99C317.537 112.417 317.347 112.717 317.107 112.89C316.867 113.057 316.587 113.14 316.267 113.14C315.98 113.14 315.76 113.08 315.607 112.96C315.46 112.833 315.374 112.66 315.347 112.44C315.32 112.213 315.347 111.96 315.427 111.68L316.957 106.34C317.157 106.333 317.347 106.32 317.527 106.3C317.714 106.28 317.884 106.247 318.037 106.2L316.337 112.15ZM322.355 106.08C322.382 105.867 322.475 105.693 322.635 105.56C322.795 105.427 322.978 105.36 323.185 105.36C323.378 105.36 323.528 105.423 323.635 105.55C323.748 105.67 323.792 105.82 323.765 106C323.738 106.207 323.642 106.38 323.475 106.52C323.315 106.653 323.132 106.72 322.925 106.72C322.732 106.72 322.582 106.66 322.475 106.54C322.368 106.413 322.328 106.26 322.355 106.08ZM322.025 108.7C322.152 108.313 322.108 108.12 321.895 108.12C321.748 108.12 321.618 108.197 321.505 108.35C321.392 108.497 321.275 108.733 321.155 109.06L320.995 109.48H320.805L321.065 108.74C321.165 108.467 321.285 108.257 321.425 108.11C321.565 107.963 321.715 107.86 321.875 107.8C322.042 107.74 322.202 107.71 322.355 107.71C322.575 107.71 322.742 107.753 322.855 107.84C322.968 107.927 323.038 108.04 323.065 108.18C323.092 108.32 323.092 108.473 323.065 108.64C323.038 108.8 322.998 108.957 322.945 109.11L321.885 112.15C321.818 112.337 321.798 112.48 321.825 112.58C321.852 112.68 321.922 112.73 322.035 112.73C322.155 112.73 322.272 112.667 322.385 112.54C322.498 112.407 322.625 112.157 322.765 111.79L322.925 111.38H323.115L322.855 112.11C322.762 112.377 322.645 112.583 322.505 112.73C322.365 112.877 322.215 112.98 322.055 113.04C321.902 113.107 321.745 113.14 321.585 113.14C321.298 113.14 321.095 113.077 320.975 112.95C320.862 112.817 320.812 112.64 320.825 112.42C320.838 112.193 320.892 111.947 320.985 111.68L322.025 108.7ZM328.821 107.91C328.628 107.91 328.438 107.997 328.251 108.17C328.064 108.343 327.888 108.58 327.721 108.88C327.561 109.173 327.418 109.503 327.291 109.87C327.164 110.237 327.064 110.617 326.991 111.01C326.924 111.403 326.891 111.777 326.891 112.13C326.891 112.41 326.931 112.617 327.011 112.75C327.098 112.877 327.221 112.94 327.381 112.94C327.574 112.94 327.764 112.853 327.951 112.68C328.138 112.507 328.314 112.273 328.481 111.98C328.648 111.687 328.791 111.36 328.911 111C329.038 110.633 329.134 110.253 329.201 109.86C329.274 109.467 329.311 109.087 329.311 108.72C329.311 108.427 329.271 108.22 329.191 108.1C329.111 107.973 328.988 107.91 328.821 107.91ZM325.871 111.54C325.871 111.247 325.911 110.927 325.991 110.58C326.071 110.233 326.194 109.89 326.361 109.55C326.528 109.21 326.728 108.903 326.961 108.63C327.201 108.35 327.481 108.127 327.801 107.96C328.128 107.793 328.488 107.71 328.881 107.71C329.328 107.71 329.681 107.843 329.941 108.11C330.201 108.37 330.331 108.77 330.331 109.31C330.331 109.603 330.291 109.923 330.211 110.27C330.131 110.617 330.008 110.96 329.841 111.3C329.674 111.64 329.471 111.95 329.231 112.23C328.998 112.503 328.718 112.723 328.391 112.89C328.071 113.057 327.714 113.14 327.321 113.14C326.874 113.14 326.521 113.007 326.261 112.74C326.001 112.473 325.871 112.073 325.871 111.54ZM334.151 113H333.101L334.301 108.7C334.327 108.613 334.347 108.527 334.361 108.44C334.381 108.347 334.377 108.27 334.351 108.21C334.324 108.15 334.261 108.12 334.161 108.12C334.027 108.12 333.904 108.187 333.791 108.32C333.684 108.453 333.567 108.7 333.441 109.06L333.291 109.48H333.101L333.351 108.74C333.497 108.333 333.677 108.06 333.891 107.92C334.111 107.78 334.341 107.71 334.581 107.71C334.794 107.71 334.951 107.753 335.051 107.84C335.151 107.927 335.211 108.04 335.231 108.18C335.257 108.313 335.257 108.463 335.231 108.63C335.211 108.79 335.181 108.95 335.141 109.11L334.151 113ZM334.561 111.05C334.801 110.41 335.031 109.877 335.251 109.45C335.477 109.017 335.697 108.673 335.911 108.42C336.124 108.167 336.341 107.987 336.561 107.88C336.787 107.767 337.024 107.71 337.271 107.71C337.591 107.71 337.811 107.783 337.931 107.93C338.057 108.077 338.114 108.267 338.101 108.5C338.094 108.727 338.051 108.967 337.971 109.22L337.001 112.15C336.934 112.33 336.911 112.473 336.931 112.58C336.951 112.68 337.024 112.73 337.151 112.73C337.264 112.73 337.377 112.667 337.491 112.54C337.611 112.413 337.737 112.163 337.871 111.79L338.021 111.38H338.211L337.961 112.11C337.867 112.39 337.747 112.603 337.601 112.75C337.461 112.897 337.311 112.997 337.151 113.05C336.997 113.11 336.847 113.14 336.701 113.14C336.534 113.14 336.394 113.113 336.281 113.06C336.167 113.007 336.081 112.933 336.021 112.84C335.941 112.713 335.911 112.553 335.931 112.36C335.951 112.16 336.004 111.933 336.091 111.68L337.021 108.87C337.054 108.77 337.081 108.66 337.101 108.54C337.121 108.42 337.117 108.317 337.091 108.23C337.064 108.137 336.981 108.09 336.841 108.09C336.694 108.09 336.534 108.163 336.361 108.31C336.187 108.457 336.004 108.667 335.811 108.94C335.624 109.207 335.441 109.523 335.261 109.89C335.081 110.257 334.907 110.657 334.741 111.09C334.574 111.517 334.421 111.97 334.281 112.45L334.561 111.05ZM341.429 112.85C341.483 112.877 341.539 112.9 341.599 112.92C341.666 112.933 341.756 112.94 341.869 112.94C342.143 112.94 342.369 112.857 342.549 112.69C342.729 112.517 342.819 112.273 342.819 111.96C342.819 111.753 342.776 111.543 342.689 111.33C342.609 111.117 342.476 110.877 342.289 110.61C342.136 110.383 341.989 110.16 341.849 109.94C341.716 109.713 341.649 109.45 341.649 109.15C341.649 108.863 341.719 108.613 341.859 108.4C341.999 108.187 342.193 108.02 342.439 107.9C342.693 107.773 342.976 107.71 343.289 107.71C343.496 107.71 343.699 107.737 343.899 107.79C344.106 107.837 344.276 107.927 344.409 108.06C344.543 108.193 344.609 108.387 344.609 108.64C344.609 108.713 344.589 108.797 344.549 108.89C344.516 108.983 344.463 109.063 344.389 109.13C344.316 109.197 344.219 109.23 344.099 109.23C343.973 109.23 343.866 109.183 343.779 109.09C343.693 108.997 343.649 108.877 343.649 108.73C343.649 108.59 343.676 108.46 343.729 108.34C343.783 108.213 343.853 108.1 343.939 108C343.826 107.933 343.676 107.9 343.489 107.9C343.243 107.9 343.039 107.98 342.879 108.14C342.726 108.3 342.649 108.523 342.649 108.81C342.649 108.963 342.673 109.103 342.719 109.23C342.766 109.35 342.836 109.477 342.929 109.61C343.023 109.743 343.129 109.903 343.249 110.09C343.423 110.363 343.563 110.617 343.669 110.85C343.783 111.083 343.839 111.327 343.839 111.58C343.839 111.88 343.759 112.15 343.599 112.39C343.446 112.623 343.236 112.807 342.969 112.94C342.703 113.073 342.399 113.14 342.059 113.14C341.819 113.14 341.586 113.103 341.359 113.03C341.139 112.963 340.959 112.857 340.819 112.71C340.679 112.557 340.609 112.35 340.609 112.09C340.609 111.97 340.646 111.85 340.719 111.73C340.786 111.61 340.899 111.55 341.059 111.55C341.226 111.55 341.346 111.62 341.419 111.76C341.499 111.893 341.539 112.05 341.539 112.23C341.539 112.363 341.526 112.48 341.499 112.58C341.473 112.68 341.449 112.77 341.429 112.85ZM346.815 112.6C346.815 112.38 346.898 112.187 347.065 112.02C347.232 111.853 347.422 111.77 347.635 111.77C347.808 111.77 347.945 111.823 348.045 111.93C348.145 112.03 348.195 112.16 348.195 112.32C348.195 112.467 348.155 112.603 348.075 112.73C348.002 112.85 347.902 112.947 347.775 113.02C347.655 113.1 347.522 113.14 347.375 113.14C347.202 113.14 347.065 113.09 346.965 112.99C346.865 112.89 346.815 112.76 346.815 112.6Z" fill="#A1745E"/>
<path d="M64.5032 87.9934C68.5063 83.8756 74.9949 83.8756 78.9979 87.9934C83.0009 92.1112 83.0009 98.7859 78.9979 102.904L61.5002 120.905L44.0025 102.904C39.9994 98.7859 39.9994 92.1112 44.0025 87.9934C48.0055 83.8756 54.4941 83.8756 58.4971 87.9934L61.5002 91.0826L64.5032 87.9934Z" stroke="#B6856C" stroke-width="5" stroke-linecap="round"/>
</svg>
